<?xml version="1.0" encoding="utf-8"?>
<!-- Generator: Adobe Illustrator 20.0.0, SVG Export Plug-In . SVG Version: 6.00 Build 0)  -->
<svg version="1.1" id="Layer_1" xmlns="http://www.w3.org/2000/svg" xmlns:xlink="http://www.w3.org/1999/xlink" x="0px" y="0px"
	 viewBox="0 0 1142 171" style="enable-background:new 0 0 1142 171;" xml:space="preserve">
<style type="text/css">
	.st0{fill:#192126;}
</style>
<g>
	<path class="st0" d="M140.1,42.8c-7,7.6-12.9,14.4-17.7,20.6c-4.8,6.2-8.4,11.4-10.8,15.7c-2.4,4.3-3.6,7.5-3.6,9.7
		c0,3.9,2.3,5.8,7,5.8c4.9,0,16.1-4.9,33.4-14.8l-0.2,5.4c-20.1,15.1-34.8,22.6-44.1,22.6c-11.1,0-16.7-4.2-16.7-12.8
		c0-5.1,3.4-12.3,10.2-21.7c6.8-9.3,17.2-21.4,31.1-36.2c-16.4,13.1-30,23.9-41,32.4c-11,8.4-22.3,16.6-34,24.6
		c-2.8,1.9-5.3,3.7-7.6,5.3c-2.3,1.6-4.6,2.9-6.9,3.8c-2.3,0.9-4.8,1.4-7.5,1.4c-4.2,0-7.7-1.2-10.5-3.6c-2.8-2.4-4.2-5.8-4.2-10.2
		c0-2.8,1.1-6.2,3.4-9.9c2.3-3.7,5.8-8.1,10.4-13.1c4.6-5,10.4-10.5,17.2-16.4c11-9.7,18.6-16.6,22.8-20.6c4.2-4,6.3-6.5,6.3-7.6
		c0-0.8-0.6-1.2-1.7-1.2c-1.4,0-3.6,0.5-6.8,1.4c-3.2,0.9-7.4,2.4-12.6,4.5c-5.2,2.1-11.9,5-20.2,8.9c-6.1,2.8-12.2,5.1-18.2,6.9
		c-6,1.8-10.2,2.7-12.6,2.7c-1.4,0-2.6-0.3-3.6-0.9C0.5,44.7,0,44,0,43.1c0-1.3,0.7-3.3,2.3-6.2c1.5-2.9,3.4-5.8,5.8-8.9
		c2.4-3.1,4.5-5.4,6.4-6.9c5.1-4.2,12.2-7.9,21.1-11.1c8.9-3.2,18.1-5.7,27.5-7.4C72.6,0.9,80.4,0,86.5,0c4.6,0,7.9,0.6,10,1.7
		c2.1,1.1,3.2,3,3.2,5.6c0,5.6-0.9,10-2.9,13c-1.9,3.1-5.1,7.1-9.7,11.9c-1.6,1.9-4.1,4.5-7.3,7.8c-3.2,3.3-6.5,6.5-9.9,9.6
		c-3.3,3.1-6.1,5.7-8.2,7.8c-2.1,2.1-4.4,4.4-6.6,6.9c-6.2,6.7-10.2,11.1-11.8,13c-1.6,1.9-2.5,3.6-2.5,5c0,1.8,1.2,2.8,3.5,2.8
		c2.1,0,4.2-0.6,6.2-1.7c2-1.1,6.3-3.8,12.9-8c7.6-4.8,14.9-9.8,22.1-15c7.2-5.2,13.7-10.3,19.5-15c5.9-4.7,13.3-10.9,22.3-18.5
		c10.1-8.6,16.5-14,19.3-16.2c2.8-2.1,5.1-3.2,6.9-3.2c1.6,0,3,0.9,4.2,2.8c1.3,1.9,1.9,4.5,1.9,7.8c0,1.8-1.2,4.2-3.7,7.1
		C153.4,28.3,148.2,34.1,140.1,42.8"/>
	<path class="st0" d="M453.2,79.7v5.4c-6.8,4.7-12.6,8.5-17.3,11.3c-4.8,2.9-9.5,5.4-14.2,7.7c-4.7,2.3-8.6,3.9-11.7,4.9
		c-3.1,1-5.8,1.5-8,1.5c-5.3,0-9.6-1.5-13-4.3c-3.4-2.9-5-6.6-5-11.2c0-5.2,1.4-10.5,4.3-15.6c2.9-5.2,7-10.5,12.4-16
		C406,58,412.7,51.8,420.8,45c6-5,9-7.9,9-8.5c0-0.4-0.2-0.7-0.5-0.9c-0.4-0.3-0.8-0.4-1.2-0.4c-1.4,0-5.5,2.2-12.5,6.6
		c-7,4.4-16,10.9-27,19.5c-11,8.6-22.8,18.8-35.5,30.6c-0.7,0.6-3,2.8-6.8,6.4c-3.8,3.6-6.5,6-8.1,7.1c-1.6,1.1-2.9,1.7-4.1,1.7
		c-2,0-3.7-1.5-5.2-4.4c-1.5-3-2.2-6.1-2.2-9.5c0-2,0.9-4.2,2.7-6.6c1.8-2.4,5.8-6.6,11.9-12.7c6.1-6.1,11.2-11.3,15.2-15.5
		c4-4.2,8.4-9.3,13.2-15.3c3.4-4.2,5.9-7.5,7.5-9.9c1.6-2.5,2.4-4.6,2.4-6.5c0-1.6-0.6-2.4-1.9-2.4c-2.7,0-7.8,2.7-15.3,8
		c-7.5,5.3-16.8,13.3-27.8,23.8c-11,10.5-22.6,22.7-34.6,36.5c-3.9,4.7-6.7,7.9-8.4,9.5c-1.6,1.6-3.5,2.4-5.5,2.4
		c-2.5,0-4.8-2-7-5.9c-2.2-3.9-3.3-7.1-3.3-9.5c0-0.8,0.4-1.6,1.3-2.6c9.4-9.2,17.2-17.1,23.3-23.6c6.1-6.5,11.5-12.6,16.2-18.4
		c4.7-5.8,8.1-10.6,10.3-14.3c2.1-3.8,3.2-6.7,3.2-8.9c0-2.3-1.4-3.4-4.2-3.4c-2.3,0-6.2,1.1-11.7,3.2c-5.5,2.1-12.5,5.1-20.9,8.8
		c-8.4,3.7-15.1,6.6-20.2,8.6c-5.1,2-8.9,3-11.4,3c-2.4,0-3.5-1-3.5-2.9c0-1.1,0.5-3.6,1.5-7.6c1-4,2-6.8,3.1-8.4
		c1.5-2.1,5.3-4.9,11.5-8.4c6.2-3.5,9.6-5.2,10.3-5.2c0.6,0,0.8,0.2,0.8,0.5c0,0.2-0.3,0.5-0.8,0.9c-2.9,1.7-5.1,3.2-6.5,4.3
		c-1.4,1.1-2.3,2.3-2.7,3.6C288.4,12.4,300.1,8,310.4,5c10.3-3,17.5-4.5,21.5-4.5c2,0,3.9,1,5.7,3c1.8,2,3.3,4.2,4.6,6.9
		c1.2,2.6,1.9,4.3,1.9,5c0,2.7-0.9,5.9-2.8,9.5c-1.9,3.7-4.4,7.9-7.5,12.7c-3.2,4.8-7.1,10.9-11.8,18.1c3.7-3.5,7.2-6.8,10.6-9.8
		c3.4-3,6.7-5.9,10-8.7c3.3-2.8,6.7-5.7,10.1-8.6c4.6-3.9,9.9-7.7,15.6-11.3c5.8-3.6,11.2-6.5,16.2-8.8c5-2.3,8.4-3.4,10.2-3.4
		c2.5,0,4.7,1,6.7,3c2,2,3,4.2,3,6.5c0,1.5-1.3,4.4-4.1,8.8c-2.7,4.3-6.7,9.8-11.9,16.5c-5.2,6.7-12.1,15.4-20.7,26
		c8.1-6.4,16.6-12.9,25.4-19.6c8.8-6.7,15.3-11.6,19.6-14.8c4.3-3.1,7.8-5.5,10.7-7.1c3.9-2.2,7.9-4.6,11.8-7.1c4-2.6,7.1-4.6,9.4-6
		c2.3-1.5,4.3-2.6,6.1-3.4c1.8-0.8,3.4-1.2,4.9-1.2c1.9,0,4.2,1.6,7,4.7c2.8,3.1,4.2,5.2,4.2,6.1c0,1.1-0.8,2.4-2.5,3.9
		c-1.7,1.5-5.2,4.4-10.5,8.5c-9.7,7.7-18.1,15.4-25.3,23.2c-7.1,7.8-12.6,14.9-16.2,21.4c-3.7,6.4-5.5,11.5-5.5,15.2
		c0,2.3,0.6,4,1.8,5c1.2,1,3,1.6,5.5,1.6c2.3,0,4.4-0.3,6.4-0.9c2-0.6,4.1-1.5,6.6-2.7c2.4-1.2,4.6-2.3,6.8-3.3c3-1.3,6-2.7,8.8-4.2
		c2.9-1.5,5.1-2.7,6.8-3.5C451.2,80.7,452.4,80.1,453.2,79.7"/>
	<path class="st0" d="M465,66c10.8-7.2,21.4-12.6,31.6-16.2c10.2-3.5,18.1-5.3,23.7-5.3c1.5,0,2.9,0.5,4.2,1.4
		c1.3,0.9,2.3,2,3.1,3.2c0.7,1.2,1.1,2.1,1.1,2.7c0,0.9-0.5,1.6-1.5,2.1c-1,0.4-2.7,1-5.3,1.6c0.5,0.8,1.1,1.9,1.9,3.2
		c0.8,1.3,1.4,2.4,1.8,3.2c0.4,0.8,0.6,1.5,0.6,2.2c0,1.3-1.7,3.6-5.2,7.1c-3.5,3.4-5.9,6-7.3,7.6c-1.4,1.6-2.1,3.6-2.1,6
		c0,3.9,2.4,5.8,7.3,5.8c5,0,12.8-3.4,23.5-10.3V85c-18.1,14.8-31,22.1-38.8,22.1c-2.8,0-4.8-0.7-5.9-2c-1.2-1.3-1.8-3.3-1.8-6
		c0-4.1,2-10.2,6.1-18c-10.4,8.5-18.2,14.6-23.3,18.2c-5.1,3.6-9.2,5.4-12.5,5.4c-1.6,0-3.5-1-5.9-3c-2.4-2-4.4-4.6-6.3-7.8
		c-1.8-3.2-2.7-6.5-2.7-9.9c0-2.5,0.3-4.5,1-6.2c0.6-1.7,1.9-3.4,3.8-5.1C457.9,71.1,460.9,68.8,465,66 M516.3,57.3
		c-18.6,6.2-31.8,11.5-39.7,15.9c-7.9,4.3-11.8,8.8-11.8,13.5c0,1.7,0.4,3.1,1.2,4.1c0.8,1.1,1.9,1.6,3.2,1.6c0.8,0,2.2-0.4,4.2-1.1
		c7.5-3.3,14.4-7.5,20.6-12.7C500.1,73.4,507.6,66.3,516.3,57.3"/>
	<path class="st0" d="M540.4,86.1V81c3.9-3.4,6.8-6.2,8.8-8.6c-2.3-0.6-3.9-1.3-5-2.1c-1-0.8-1.5-2.1-1.5-3.8c0-1.9,1.1-4.3,3.2-7.2
		c2.1-2.9,4.8-5.6,7.9-8.1c3.2-2.5,6-4.1,8.6-4.9c1-0.4,2-0.5,2.9-0.5c1.4,0,2.1,0.5,2.1,1.5c0,0.9-1.1,2.7-3.3,5.4
		c14.7-1.7,24-2.5,27.9-2.5c1.5,0,2.5,0.1,3.1,0.3c1.2,0.5,2.2,1.6,3,3.3c0.8,1.7,1.2,3.5,1.2,5.2c0,1.1-0.7,2.3-2,3.6
		c-1.3,1.3-3.6,3.2-6.8,5.6c-3.8,3-7,6.3-9.5,9.8c-2.6,3.5-3.8,6.2-3.8,7.9c0,2.5,2.1,3.7,6.2,3.7c4.3,0,11.9-3.3,22.7-9.8v5.3
		c-5.9,4.6-10.8,8.2-14.7,10.8c-3.9,2.6-7.4,4.7-10.7,6.3c-3.3,1.5-6.2,2.3-8.8,2.3c-3,0-5.5-1-7.5-3c-2-2-3-5-3-8.8
		c0-2.3,0.8-4.8,2.4-7.7c1.6-2.9,3.9-6,6.9-9.4c3-3.4,6.5-6.8,10.3-10.1c-2,0.3-4.2,0.6-6.8,1c-2.5,0.4-5.1,0.7-7.9,1.1
		c-2.8,0.4-4.9,0.7-6.4,0.9C555.3,74.9,548.8,80.8,540.4,86.1"/>
	<path class="st0" d="M1142,99.3v5.3c-4.3,3.1-81.9,66.3-300.6,66.3c-165.1,0-222.9-65.5-224.4-66.5c-3.3-2.3-12.7-16.5-12.7-20.7
		c0-3.6,1.1-6.7,3.2-9.5c2.1-2.8,6.3-6.4,12.4-10.8c7.3-5.2,14.1-9.3,20.3-12.2c6.3-2.9,11.2-4.3,14.7-4.3c2.6,0,4.8,0.7,6.5,2
		c1.8,1.3,2.7,3,2.7,5c0,1.7-1.2,4.1-3.5,7.2c-2.4,3.1-5,5.8-7.9,8.1c-2.9,2.3-5.3,3.4-7,3.4c-1.8,0-2.8-0.7-2.8-2.2
		c0.1-5.5-4.2-4.9-6.3-4c-7.1,3.7-10.8,6.3-13.5,7.8c-2.6,1.5-9,5.2-7,14.3c0.2,4.4,16.7,27.5,66.9,46.7
		c38.1,14.5,95.7,26.9,164.4,27.8C1050,162.9,1137.2,102,1142,99.3"/>
	<path class="st0" d="M191,25.7c-0.5,0-1-0.2-1.5-0.5c-0.4-0.3-0.7-0.7-0.7-1.1c0-1.1,1.7-3.8,5-8.2c1.4-1.8,2.7-3,3.6-3.6
		c1-0.6,2.4-0.9,4.1-0.9c2.4,0,3.6,0.7,3.6,2.2c0,0.8-1,2.2-3.1,4.2c-2.1,1.9-4.3,3.7-6.6,5.4C193.1,24.8,191.6,25.7,191,25.7"/>
	<path class="st0" d="M790.9,74.9c0,7.8-6.1,14.2-13.7,14.2c-7.6,0-13.7-6.4-13.7-14.2c0-7.8,6.1-14.2,13.7-14.2
		C784.7,60.7,790.9,67.1,790.9,74.9"/>
	<path class="st0" d="M954.2,74.9c0,7.8-6.1,14.2-13.7,14.2c-7.6,0-13.7-6.4-13.7-14.2c0-7.8,6.1-14.2,13.7-14.2
		C948,60.7,954.2,67.1,954.2,74.9"/>
	<path class="st0" d="M14.4,127.2H28c4.6,0,8.2,1.7,10.7,5c2.3,3,3.4,6.8,3.4,11.5c0,3.6-0.7,6.9-2,9.8c-2.4,5.2-6.4,7.7-12.2,7.7
		H14.4V127.2z M27.1,157.2c1.5,0,2.8-0.2,3.7-0.5c1.8-0.6,3.2-1.8,4.3-3.5c0.9-1.4,1.5-3.1,1.9-5.3c0.2-1.3,0.3-2.5,0.3-3.6
		c0-4.2-0.8-7.5-2.5-9.8c-1.6-2.3-4.3-3.5-7.9-3.5h-8v26.1H27.1z"/>
	<path class="st0" d="M47.6,127.2h4.2v4.7h-4.2V127.2z M47.6,136.5h4.2v24.7h-4.2V136.5z"/>
	<path class="st0" d="M60.3,153.4c0.1,1.4,0.5,2.5,1.1,3.2c1.1,1.3,2.9,2,5.6,2c1.6,0,3-0.3,4.1-1c1.2-0.7,1.8-1.7,1.8-3.1
		c0-1.1-0.5-1.9-1.4-2.4c-0.6-0.3-1.8-0.7-3.6-1.2l-3.4-0.8c-2.1-0.5-3.7-1.1-4.7-1.8c-1.8-1.1-2.7-2.7-2.7-4.7
		c0-2.3,0.9-4.2,2.6-5.7c1.7-1.4,4-2.2,6.9-2.2c3.8,0,6.5,1.1,8.2,3.3c1.1,1.4,1.6,2.9,1.5,4.5h-3.9c-0.1-0.9-0.4-1.8-1-2.6
		c-1-1.1-2.7-1.6-5.1-1.6c-1.6,0-2.8,0.3-3.7,0.9c-0.8,0.6-1.2,1.4-1.2,2.4c0,1.1,0.5,1.9,1.6,2.6c0.6,0.4,1.6,0.7,2.8,1l2.8,0.7
		c3.1,0.7,5.1,1.4,6.1,2.1c1.6,1.1,2.4,2.7,2.4,5c0,2.2-0.8,4.1-2.5,5.7c-1.7,1.6-4.3,2.4-7.7,2.4c-3.7,0-6.4-0.8-7.9-2.5
		c-1.6-1.7-2.4-3.7-2.5-6.2H60.3z"/>
	<path class="st0" d="M81,136.5H85v3.3c0.8-1.1,1.8-2,2.7-2.6c1.4-0.9,3.1-1.4,5-1.4c2.8,0,5.2,1.1,7.2,3.2c2,2.2,3,5.2,3,9.2
		c0,5.4-1.4,9.2-4.2,11.6c-1.8,1.5-3.9,2.2-6.3,2.2c-1.9,0-3.4-0.4-4.7-1.2c-0.7-0.5-1.6-1.3-2.5-2.4V171H81V136.5z M96.6,155.9
		c1.3-1.6,1.9-4.1,1.9-7.3c0-2-0.3-3.7-0.9-5.1c-1.1-2.7-3.1-4.1-5.9-4.1c-2.9,0-4.9,1.4-5.9,4.3c-0.6,1.5-0.9,3.5-0.9,5.9
		c0,1.9,0.3,3.5,0.9,4.9c1.1,2.6,3.1,3.8,5.9,3.8C93.7,158.3,95.3,157.5,96.6,155.9"/>
	<path class="st0" d="M125.4,138.8c2.2,2.1,3.3,5.3,3.3,9.4c0,4-1,7.3-2.9,9.9c-1.9,2.6-4.9,3.9-9,3.9c-3.4,0-6.1-1.1-8.1-3.5
		c-2-2.3-3-5.4-3-9.3c0-4.2,1.1-7.5,3.1-9.9c2.1-2.5,4.9-3.7,8.5-3.7C120.5,135.7,123.2,136.7,125.4,138.8 M122.8,155.3
		c1-2.1,1.5-4.4,1.5-7c0-2.3-0.4-4.2-1.1-5.6c-1.2-2.3-3.2-3.4-6-3.4c-2.5,0-4.3,1-5.5,2.9c-1.1,1.9-1.7,4.3-1.7,7
		c0,2.6,0.6,4.8,1.7,6.6c1.1,1.8,3,2.6,5.4,2.6C119.9,158.4,121.8,157.4,122.8,155.3"/>
	<path class="st0" d="M136,153.4c0.1,1.4,0.5,2.5,1.1,3.2c1.1,1.3,2.9,2,5.6,2c1.6,0,3-0.3,4.1-1c1.2-0.7,1.8-1.7,1.8-3.1
		c0-1.1-0.5-1.9-1.4-2.4c-0.6-0.3-1.8-0.7-3.6-1.2l-3.4-0.8c-2.1-0.5-3.7-1.1-4.7-1.8c-1.8-1.1-2.7-2.7-2.7-4.7
		c0-2.3,0.9-4.2,2.6-5.7c1.7-1.4,4-2.2,6.9-2.2c3.8,0,6.5,1.1,8.2,3.3c1.1,1.4,1.6,2.9,1.5,4.5h-3.9c-0.1-0.9-0.4-1.8-1-2.6
		c-1-1.1-2.7-1.6-5.1-1.6c-1.6,0-2.8,0.3-3.7,0.9c-0.8,0.6-1.2,1.4-1.2,2.4c0,1.1,0.5,1.9,1.6,2.6c0.6,0.4,1.6,0.7,2.8,1l2.8,0.7
		c3.1,0.7,5.1,1.4,6.1,2.1c1.6,1.1,2.4,2.7,2.4,5c0,2.2-0.8,4.1-2.5,5.7c-1.7,1.6-4.3,2.4-7.7,2.4c-3.7,0-6.4-0.8-7.9-2.5
		c-1.6-1.7-2.4-3.7-2.5-6.2H136z"/>
	<path class="st0" d="M170.2,146.2c1-0.1,1.6-0.5,1.9-1.2c0.2-0.4,0.3-0.9,0.3-1.6c0-1.4-0.5-2.5-1.5-3.1c-1-0.6-2.4-1-4.3-1
		c-2.2,0-3.7,0.6-4.6,1.8c-0.5,0.7-0.8,1.6-1,2.9h-3.9c0.1-3.1,1.1-5.2,3-6.4c1.9-1.2,4.1-1.8,6.6-1.8c2.9,0,5.3,0.6,7.1,1.7
		c1.8,1.1,2.7,2.8,2.7,5.2v14.3c0,0.4,0.1,0.8,0.3,1c0.2,0.3,0.5,0.4,1.1,0.4c0.2,0,0.4,0,0.6,0c0.2,0,0.5-0.1,0.7-0.1v3.1
		c-0.6,0.2-1.1,0.3-1.5,0.3c-0.3,0-0.8,0.1-1.4,0.1c-1.4,0-2.5-0.5-3.1-1.5c-0.3-0.5-0.6-1.3-0.7-2.3c-0.8,1.1-2.1,2.1-3.6,2.9
		s-3.3,1.2-5.2,1.2c-2.3,0-4.2-0.7-5.6-2.1c-1.4-1.4-2.2-3.1-2.2-5.2c0-2.3,0.7-4.1,2.1-5.3c1.4-1.3,3.3-2,5.6-2.3L170.2,146.2z
		 M161.5,157.4c0.9,0.7,1.9,1,3.1,1c1.5,0,2.9-0.3,4.3-1c2.3-1.1,3.5-3,3.5-5.5v-3.4c-0.5,0.3-1.2,0.6-2,0.8
		c-0.8,0.2-1.6,0.4-2.4,0.5l-2.5,0.3c-1.5,0.2-2.6,0.5-3.4,1c-1.3,0.7-1.9,1.9-1.9,3.5C160.2,155.8,160.6,156.7,161.5,157.4"/>
	<path class="st0" d="M182.7,127.1h4.1v12.3c0.9-1.2,2-2.1,3.3-2.7c1.3-0.6,2.6-0.9,4.1-0.9c3.1,0,5.6,1.1,7.5,3.2
		c1.9,2.1,2.9,5.2,2.9,9.4c0,3.9-1,7.2-2.9,9.8c-1.9,2.6-4.6,3.9-7.9,3.9c-1.9,0-3.5-0.5-4.8-1.4c-0.8-0.5-1.6-1.4-2.5-2.6v3.2h-3.8
		V127.1z M198.7,155.6c1.1-1.8,1.7-4.1,1.7-7.1c0-2.6-0.6-4.8-1.7-6.5c-1.1-1.7-2.8-2.6-5-2.6c-1.9,0-3.6,0.7-5,2.1
		c-1.4,1.4-2.1,3.7-2.1,6.9c0,2.3,0.3,4.2,0.9,5.7c1.1,2.7,3.1,4.1,6.1,4.1C195.8,158.3,197.5,157.4,198.7,155.6"/>
	<rect x="209.3" y="127.2" class="st0" width="4.2" height="34"/>
	<path class="st0" d="M234.8,137c1.6,0.8,2.9,1.9,3.7,3.2c0.8,1.3,1.4,2.7,1.7,4.4c0.2,1.1,0.4,3,0.4,5.5h-18
		c0.1,2.5,0.7,4.5,1.8,6.1c1.1,1.5,2.8,2.3,5.1,2.3c2.1,0,3.9-0.7,5.2-2.2c0.7-0.8,1.2-1.8,1.5-2.9h4.1c-0.1,0.9-0.5,1.9-1.1,3
		c-0.6,1.1-1.3,2-2,2.7c-1.3,1.2-2.8,2.1-4.7,2.5c-1,0.3-2.1,0.4-3.4,0.4c-3.1,0-5.7-1.1-7.8-3.4c-2.1-2.2-3.2-5.4-3.2-9.4
		c0-4,1.1-7.2,3.2-9.7c2.1-2.5,4.9-3.7,8.4-3.7C231.4,135.8,233.1,136.2,234.8,137 M236.3,146.8c-0.2-1.8-0.6-3.2-1.2-4.3
		c-1.1-2-3-3-5.7-3c-1.9,0-3.5,0.7-4.8,2.1c-1.3,1.4-2,3.1-2,5.3H236.3z"/>
	<path class="st0" d="M266.4,127.2h5.2l12.3,34h-5l-3.5-10.2H262l-3.7,10.2h-4.7L266.4,127.2z M274,147.2l-5.2-15l-5.4,15H274z"/>
	<path class="st0" d="M287.4,136.4h3.9v4.3c0.3-0.8,1.1-1.9,2.4-3.1c1.3-1.2,2.7-1.8,4.4-1.8c0.1,0,0.2,0,0.4,0c0.2,0,0.5,0,1,0.1
		v4.4c-0.2,0-0.5-0.1-0.7-0.1c-0.2,0-0.4,0-0.7,0c-2.1,0-3.7,0.7-4.8,2c-1.1,1.4-1.7,2.9-1.7,4.7v14.2h-4.2V136.4z"/>
	<path class="st0" d="M319.2,137.7c1.7,1.4,2.8,3.7,3.2,7h-4c-0.2-1.5-0.8-2.8-1.7-3.8c-0.9-1-2.3-1.5-4.2-1.5
		c-2.6,0-4.5,1.3-5.7,3.9c-0.7,1.7-1.1,3.7-1.1,6.2c0,2.5,0.5,4.6,1.6,6.3c1,1.7,2.7,2.5,5,2.5c1.7,0,3.1-0.5,4.1-1.6
		c1-1,1.7-2.5,2.1-4.3h4c-0.5,3.3-1.6,5.7-3.5,7.2c-1.9,1.5-4.2,2.3-7.1,2.3c-3.2,0-5.8-1.2-7.7-3.6c-1.9-2.4-2.9-5.3-2.9-8.9
		c0-4.3,1.1-7.7,3.2-10.2c2.1-2.4,4.8-3.6,8.1-3.6C315.2,135.7,317.4,136.3,319.2,137.7"/>
	<path class="st0" d="M326.3,127h4.2v12.7c1-1.2,1.9-2.1,2.7-2.6c1.3-0.9,3-1.3,5-1.3c3.6,0,6,1.3,7.3,3.8c0.7,1.4,1,3.3,1,5.7v15.9
		h-4.3v-15.6c0-1.8-0.2-3.2-0.7-4c-0.7-1.4-2.2-2-4.2-2c-1.7,0-3.3,0.6-4.7,1.8c-1.4,1.2-2.1,3.4-2.1,6.7v13.1h-4.2V127z"/>
	<polygon class="st0" points="354.3,136.4 359.1,155.9 363.9,136.4 368.6,136.4 373.4,155.8 378.5,136.4 382.6,136.4 375.5,161.1 
		371.1,161.1 366.1,142 361.2,161.1 356.9,161.1 349.7,136.4 	"/>
	<path class="st0" d="M386.3,127.2h4.2v4.7h-4.2V127.2z M386.3,136.5h4.2v24.7h-4.2V136.5z"/>
	<path class="st0" d="M396.7,136.4h3.9v4.3c0.3-0.8,1.1-1.9,2.4-3.1c1.3-1.2,2.7-1.8,4.4-1.8c0.1,0,0.2,0,0.4,0c0.2,0,0.5,0,0.9,0.1
		v4.4c-0.2,0-0.5-0.1-0.7-0.1c-0.2,0-0.4,0-0.7,0c-2.1,0-3.7,0.7-4.8,2c-1.1,1.4-1.7,2.9-1.7,4.7v14.2h-4.2V136.4z"/>
	<path class="st0" d="M427.5,137c1.6,0.8,2.9,1.9,3.7,3.2c0.8,1.3,1.4,2.7,1.7,4.4c0.2,1.1,0.4,3,0.4,5.5h-18
		c0.1,2.5,0.7,4.5,1.8,6.1c1.1,1.5,2.8,2.3,5.1,2.3c2.1,0,3.9-0.7,5.2-2.2c0.7-0.8,1.2-1.8,1.5-2.9h4.1c-0.1,0.9-0.5,1.9-1.1,3
		c-0.6,1.1-1.3,2-2,2.7c-1.3,1.2-2.8,2.1-4.7,2.5c-1,0.3-2.1,0.4-3.4,0.4c-3.1,0-5.7-1.1-7.8-3.4c-2.1-2.2-3.2-5.4-3.2-9.4
		c0-4,1.1-7.2,3.2-9.7c2.1-2.5,4.9-3.7,8.4-3.7C424.1,135.8,425.8,136.2,427.5,137 M428.9,146.8c-0.2-1.8-0.6-3.2-1.2-4.3
		c-1.1-2-3-3-5.7-3c-1.9,0-3.5,0.7-4.8,2.1c-1.3,1.4-2,3.1-2,5.3H428.9z"/>
	<path class="st0" d="M451.6,127.2h6.6l9.8,28.7l9.7-28.7h6.6v34h-4.4v-20.1c0-0.7,0-1.8,0-3.4c0-1.6,0-3.3,0-5.2l-9.7,28.7h-4.6
		l-9.8-28.7v1c0,0.8,0,2.1,0.1,3.8c0,1.7,0.1,3,0.1,3.7v20.1h-4.4V127.2z"/>
	<path class="st0" d="M503.7,146.2c1-0.1,1.6-0.5,1.9-1.2c0.2-0.4,0.3-0.9,0.3-1.6c0-1.4-0.5-2.5-1.5-3.1c-1-0.6-2.5-1-4.3-1
		c-2.2,0-3.7,0.6-4.6,1.8c-0.5,0.7-0.8,1.6-1,2.9h-3.9c0.1-3.1,1.1-5.2,3-6.4c1.9-1.2,4.1-1.8,6.6-1.8c2.9,0,5.3,0.6,7.1,1.7
		c1.8,1.1,2.7,2.8,2.7,5.2v14.3c0,0.4,0.1,0.8,0.3,1c0.2,0.3,0.6,0.4,1.1,0.4c0.2,0,0.4,0,0.6,0c0.2,0,0.5-0.1,0.7-0.1v3.1
		c-0.6,0.2-1.1,0.3-1.5,0.3c-0.3,0-0.8,0.1-1.4,0.1c-1.4,0-2.5-0.5-3.1-1.5c-0.3-0.5-0.6-1.3-0.7-2.3c-0.8,1.1-2.1,2.1-3.6,2.9
		c-1.6,0.8-3.3,1.2-5.2,1.2c-2.3,0-4.2-0.7-5.6-2.1c-1.4-1.4-2.2-3.1-2.2-5.2c0-2.3,0.7-4.1,2.1-5.3c1.4-1.3,3.3-2,5.6-2.3
		L503.7,146.2z M494.9,157.4c0.9,0.7,1.9,1,3.1,1c1.5,0,2.9-0.3,4.3-1c2.3-1.1,3.5-3,3.5-5.5v-3.4c-0.5,0.3-1.2,0.6-2,0.8
		c-0.8,0.2-1.6,0.4-2.4,0.5l-2.5,0.3c-1.5,0.2-2.6,0.5-3.4,1c-1.3,0.7-1.9,1.9-1.9,3.5C493.6,155.8,494,156.7,494.9,157.4"/>
	<path class="st0" d="M516.6,136.4h4v4.3c0.3-0.8,1.1-1.9,2.4-3.1c1.3-1.2,2.7-1.8,4.4-1.8c0.1,0,0.2,0,0.4,0c0.2,0,0.5,0,1,0.1v4.4
		c-0.2,0-0.5-0.1-0.7-0.1c-0.2,0-0.4,0-0.7,0c-2.1,0-3.7,0.7-4.8,2c-1.1,1.4-1.7,2.9-1.7,4.7v14.2h-4.2V136.4z"/>
	<polygon class="st0" points="532,127.2 536,127.2 536,146.9 546.6,136.4 552,136.4 542.4,145.6 552.5,161.1 547.2,161.1 
		539.4,148.5 536,151.8 536,161.1 532,161.1 	"/>
	<path class="st0" d="M570.8,137c1.6,0.8,2.9,1.9,3.7,3.2c0.8,1.3,1.4,2.7,1.7,4.4c0.2,1.1,0.4,3,0.4,5.5h-18
		c0.1,2.5,0.7,4.5,1.8,6.1c1.1,1.5,2.8,2.3,5.1,2.3c2.1,0,3.9-0.7,5.2-2.2c0.7-0.8,1.2-1.8,1.5-2.9h4.1c-0.1,0.9-0.5,1.9-1.1,3
		c-0.6,1.1-1.3,2-2,2.7c-1.3,1.2-2.8,2.1-4.7,2.5c-1,0.3-2.1,0.4-3.4,0.4c-3.1,0-5.7-1.1-7.8-3.4c-2.1-2.2-3.2-5.4-3.2-9.4
		c0-4,1.1-7.2,3.2-9.7c2.1-2.5,4.9-3.7,8.4-3.7C567.5,135.8,569.2,136.2,570.8,137 M572.3,146.8c-0.2-1.8-0.6-3.2-1.2-4.3
		c-1.1-2-3-3-5.7-3c-1.9,0-3.5,0.7-4.8,2.1c-1.3,1.4-2,3.1-2,5.3H572.3z"/>
	<path class="st0" d="M581.7,136.4h4v4.3c0.3-0.8,1.1-1.9,2.4-3.1c1.3-1.2,2.7-1.8,4.4-1.8c0.1,0,0.2,0,0.4,0c0.2,0,0.5,0,1,0.1v4.4
		c-0.2,0-0.5-0.1-0.7-0.1c-0.2,0-0.4,0-0.7,0c-2.1,0-3.7,0.7-4.8,2c-1.1,1.4-1.7,2.9-1.7,4.7v14.2h-4.2V136.4z"/>
	<path class="st0" d="M599.6,153.4c0.1,1.4,0.5,2.5,1.1,3.2c1.1,1.3,2.9,2,5.6,2c1.6,0,3-0.3,4.1-1c1.2-0.7,1.8-1.7,1.8-3.1
		c0-1.1-0.5-1.9-1.4-2.4c-0.6-0.3-1.8-0.7-3.6-1.2l-3.4-0.8c-2.2-0.5-3.7-1.1-4.8-1.8c-1.8-1.1-2.7-2.7-2.7-4.7
		c0-2.3,0.9-4.2,2.6-5.7c1.7-1.4,4-2.2,6.9-2.2c3.8,0,6.5,1.1,8.2,3.3c1.1,1.4,1.6,2.9,1.5,4.5h-3.9c-0.1-0.9-0.4-1.8-1-2.6
		c-1-1.1-2.7-1.6-5.1-1.6c-1.6,0-2.8,0.3-3.7,0.9s-1.2,1.4-1.2,2.4c0,1.1,0.5,1.9,1.6,2.6c0.6,0.4,1.6,0.7,2.8,1l2.8,0.7
		c3.1,0.7,5.1,1.4,6.1,2.1c1.6,1.1,2.4,2.7,2.4,5c0,2.2-0.8,4.1-2.5,5.7c-1.7,1.6-4.3,2.4-7.7,2.4c-3.7,0-6.4-0.8-7.9-2.5
		c-1.6-1.7-2.4-3.7-2.5-6.2H599.6z"/>
</g>
</svg>
